<svg width="161" height="42" viewBox="0 0 161 42" fill="none" xmlns="http://www.w3.org/2000/svg">
<path fill-rule="evenodd" clip-rule="evenodd" d="M41.9998 21.0966L42 21C42 9.40202 32.598 0 21 0C10.1757 0 1.26409 8.18954 0.123364 18.7105L11.79 24.4142C12.3617 23.6184 13.2953 23.1 14.35 23.1C15.2427 23.1 16.0487 23.4714 16.6219 24.068L25.9002 16.4134C25.9198 14.6906 27.3225 13.3 29.05 13.3C30.6572 13.3 31.9833 14.5037 32.1759 16.0587L41.9998 21.0966ZM17.4857 25.9482L26.5994 18.4294C27.1769 19.1434 28.0601 19.6 29.05 19.6C30.1912 19.6 31.1907 18.9931 31.7433 18.0845L41.8775 23.2815C40.7404 33.8063 31.8271 42 21 42C9.40202 42 0 32.598 0 21C0 20.9588 0.000118391 20.9177 0.000354851 20.8766L11.2016 26.3528C11.2559 28.0449 12.6447 29.4 14.35 29.4C16.0897 29.4 17.5 27.9897 17.5 26.25C17.5 26.1482 17.4952 26.0475 17.4857 25.9482Z" fill="#605BFF"/>
<path d="M54.608 29.216C53.872 29.216 53.152 29.16 52.448 29.048C51.744 28.936 51.08 28.768 50.456 28.544C49.832 28.304 49.272 28.016 48.776 27.68C48.536 27.504 48.368 27.304 48.272 27.08C48.192 26.856 48.168 26.64 48.2 26.432C48.248 26.208 48.344 26.016 48.488 25.856C48.632 25.696 48.808 25.6 49.016 25.568C49.224 25.52 49.456 25.584 49.712 25.76C50.432 26.224 51.192 26.568 51.992 26.792C52.792 27 53.664 27.104 54.608 27.104C55.968 27.104 56.968 26.864 57.608 26.384C58.264 25.888 58.592 25.248 58.592 24.464C58.592 23.824 58.36 23.32 57.896 22.952C57.432 22.568 56.656 22.264 55.568 22.04L53 21.512C51.48 21.192 50.344 20.664 49.592 19.928C48.856 19.192 48.488 18.2 48.488 16.952C48.488 16.2 48.64 15.512 48.944 14.888C49.264 14.264 49.704 13.728 50.264 13.28C50.824 12.816 51.496 12.464 52.28 12.224C53.064 11.984 53.92 11.864 54.848 11.864C55.84 11.864 56.768 11.992 57.632 12.248C58.512 12.504 59.296 12.896 59.984 13.424C60.192 13.568 60.328 13.752 60.392 13.976C60.472 14.184 60.488 14.392 60.44 14.6C60.408 14.808 60.32 14.984 60.176 15.128C60.032 15.272 59.848 15.36 59.624 15.392C59.4 15.408 59.152 15.328 58.88 15.152C58.256 14.736 57.616 14.44 56.96 14.264C56.32 14.072 55.608 13.976 54.824 13.976C54.04 13.976 53.352 14.096 52.76 14.336C52.184 14.576 51.736 14.912 51.416 15.344C51.112 15.776 50.96 16.288 50.96 16.88C50.96 17.552 51.176 18.088 51.608 18.488C52.04 18.888 52.76 19.192 53.768 19.4L56.312 19.928C57.912 20.264 59.104 20.784 59.888 21.488C60.672 22.192 61.064 23.128 61.064 24.296C61.064 25.048 60.912 25.728 60.608 26.336C60.304 26.928 59.872 27.44 59.312 27.872C58.752 28.304 58.072 28.64 57.272 28.88C56.488 29.104 55.6 29.216 54.608 29.216ZM67.8097 29.216C66.8657 29.216 66.0737 29.04 65.4337 28.688C64.8097 28.336 64.3377 27.816 64.0177 27.128C63.7137 26.424 63.5617 25.544 63.5617 24.488V18.344C63.5617 17.928 63.6657 17.624 63.8737 17.432C64.0817 17.224 64.3777 17.12 64.7617 17.12C65.1457 17.12 65.4417 17.224 65.6497 17.432C65.8737 17.624 65.9857 17.928 65.9857 18.344V24.512C65.9857 25.456 66.1777 26.152 66.5617 26.6C66.9457 27.048 67.5537 27.272 68.3857 27.272C69.2977 27.272 70.0337 26.968 70.5937 26.36C71.1697 25.736 71.4577 24.92 71.4577 23.912V18.344C71.4577 17.928 71.5617 17.624 71.7697 17.432C71.9777 17.224 72.2817 17.12 72.6817 17.12C73.0657 17.12 73.3617 17.224 73.5697 17.432C73.7777 17.624 73.8817 17.928 73.8817 18.344V27.944C73.8817 28.76 73.4897 29.168 72.7057 29.168C72.3377 29.168 72.0497 29.064 71.8417 28.856C71.6337 28.632 71.5297 28.328 71.5297 27.944V25.904L71.8417 26.432C71.5217 27.328 71.0097 28.016 70.3057 28.496C69.6017 28.976 68.7697 29.216 67.8097 29.216ZM78.5218 29.168C78.1218 29.168 77.8178 29.064 77.6098 28.856C77.4018 28.632 77.2978 28.328 77.2978 27.944V18.344C77.2978 17.944 77.4018 17.64 77.6098 17.432C77.8178 17.224 78.1058 17.12 78.4738 17.12C78.8578 17.12 79.1458 17.224 79.3378 17.432C79.5458 17.64 79.6498 17.944 79.6498 18.344V20.096H79.4098C79.6658 19.136 80.1378 18.408 80.8258 17.912C81.5138 17.416 82.3938 17.128 83.4658 17.048C83.7538 17.032 83.9778 17.104 84.1378 17.264C84.3138 17.424 84.4098 17.672 84.4258 18.008C84.4578 18.344 84.3858 18.616 84.2098 18.824C84.0338 19.016 83.7618 19.128 83.3938 19.16L82.9378 19.208C81.8978 19.304 81.1058 19.632 80.5618 20.192C80.0178 20.752 79.7458 21.52 79.7458 22.496V27.944C79.7458 28.328 79.6418 28.632 79.4338 28.856C79.2418 29.064 78.9378 29.168 78.5218 29.168ZM91.5134 29.168C91.1774 29.168 90.8814 29.08 90.6254 28.904C90.3854 28.728 90.1854 28.456 90.0254 28.088L86.0174 18.776C85.8894 18.488 85.8414 18.216 85.8734 17.96C85.9054 17.704 86.0254 17.504 86.2334 17.36C86.4414 17.2 86.7214 17.12 87.0734 17.12C87.3774 17.12 87.6174 17.192 87.7934 17.336C87.9694 17.48 88.1294 17.728 88.2734 18.08L91.8974 27.008H91.2254L94.9214 18.08C95.0654 17.728 95.2254 17.48 95.4014 17.336C95.5934 17.192 95.8574 17.12 96.1934 17.12C96.4814 17.12 96.7054 17.2 96.8654 17.36C97.0414 17.504 97.1454 17.704 97.1774 17.96C97.2254 18.2 97.1854 18.464 97.0574 18.752L93.0014 28.088C92.8574 28.456 92.6574 28.728 92.4014 28.904C92.1454 29.08 91.8494 29.168 91.5134 29.168ZM100.646 29.144C100.262 29.144 99.9662 29.032 99.7582 28.808C99.5502 28.568 99.4462 28.24 99.4462 27.824V18.464C99.4462 18.048 99.5502 17.728 99.7582 17.504C99.9662 17.28 100.262 17.168 100.646 17.168C101.03 17.168 101.326 17.28 101.534 17.504C101.758 17.728 101.87 18.048 101.87 18.464V27.824C101.87 28.24 101.766 28.568 101.558 28.808C101.35 29.032 101.046 29.144 100.646 29.144ZM100.646 14.672C100.166 14.672 99.7902 14.552 99.5182 14.312C99.2622 14.072 99.1342 13.736 99.1342 13.304C99.1342 12.856 99.2622 12.52 99.5182 12.296C99.7902 12.056 100.166 11.936 100.646 11.936C101.126 11.936 101.494 12.056 101.75 12.296C102.022 12.52 102.158 12.856 102.158 13.304C102.158 13.736 102.022 14.072 101.75 14.312C101.494 14.552 101.126 14.672 100.646 14.672ZM110.778 29.216C109.498 29.216 108.394 28.976 107.466 28.496C106.554 28 105.842 27.304 105.33 26.408C104.834 25.496 104.586 24.416 104.586 23.168C104.586 21.952 104.834 20.888 105.33 19.976C105.826 19.064 106.506 18.352 107.37 17.84C108.234 17.328 109.218 17.072 110.322 17.072C111.138 17.072 111.866 17.208 112.506 17.48C113.146 17.736 113.69 18.12 114.138 18.632C114.602 19.128 114.946 19.736 115.17 20.456C115.41 21.176 115.53 21.984 115.53 22.88C115.53 23.152 115.45 23.36 115.29 23.504C115.13 23.632 114.89 23.696 114.57 23.696H106.506V22.208H113.898L113.49 22.544C113.49 21.744 113.37 21.064 113.13 20.504C112.906 19.944 112.562 19.52 112.098 19.232C111.65 18.928 111.09 18.776 110.418 18.776C109.666 18.776 109.026 18.952 108.498 19.304C107.986 19.656 107.594 20.144 107.322 20.768C107.05 21.392 106.914 22.12 106.914 22.952V23.096C106.914 24.504 107.242 25.568 107.898 26.288C108.57 26.992 109.538 27.344 110.802 27.344C111.282 27.344 111.786 27.28 112.314 27.152C112.858 27.024 113.37 26.808 113.85 26.504C114.122 26.344 114.362 26.272 114.57 26.288C114.794 26.304 114.97 26.376 115.098 26.504C115.242 26.632 115.33 26.792 115.362 26.984C115.394 27.176 115.362 27.376 115.266 27.584C115.17 27.776 115.002 27.952 114.762 28.112C114.218 28.48 113.586 28.76 112.866 28.952C112.146 29.128 111.45 29.216 110.778 29.216ZM122.281 29.168C121.945 29.168 121.649 29.088 121.393 28.928C121.153 28.752 120.961 28.48 120.817 28.112L117.289 18.776C117.161 18.456 117.121 18.176 117.169 17.936C117.217 17.68 117.337 17.48 117.529 17.336C117.737 17.192 118.001 17.12 118.321 17.12C118.609 17.12 118.841 17.192 119.017 17.336C119.209 17.464 119.369 17.72 119.497 18.104L122.641 26.96H122.065L125.329 18.008C125.441 17.704 125.593 17.48 125.785 17.336C125.977 17.192 126.225 17.12 126.529 17.12C126.833 17.12 127.081 17.192 127.273 17.336C127.481 17.48 127.633 17.704 127.729 18.008L130.921 26.96H130.393L133.585 18.056C133.713 17.688 133.873 17.44 134.065 17.312C134.273 17.184 134.505 17.12 134.761 17.12C135.081 17.12 135.321 17.2 135.481 17.36C135.657 17.52 135.753 17.728 135.769 17.984C135.801 18.224 135.761 18.488 135.649 18.776L132.121 28.112C131.977 28.464 131.777 28.728 131.521 28.904C131.281 29.08 131.001 29.168 130.681 29.168C130.345 29.168 130.049 29.08 129.793 28.904C129.553 28.728 129.361 28.464 129.217 28.112L125.857 19.016H127.057L123.721 28.112C123.593 28.464 123.401 28.728 123.145 28.904C122.905 29.08 122.617 29.168 122.281 29.168ZM138.31 29.096C137.846 29.096 137.47 28.952 137.182 28.664C136.894 28.376 136.75 28.008 136.75 27.56C136.75 27.112 136.894 26.752 137.182 26.48C137.47 26.192 137.846 26.048 138.31 26.048C138.774 26.048 139.142 26.192 139.414 26.48C139.686 26.752 139.822 27.112 139.822 27.56C139.822 28.008 139.686 28.376 139.414 28.664C139.142 28.952 138.774 29.096 138.31 29.096ZM144.029 29.144C143.645 29.144 143.349 29.032 143.141 28.808C142.933 28.568 142.829 28.24 142.829 27.824V18.464C142.829 18.048 142.933 17.728 143.141 17.504C143.349 17.28 143.645 17.168 144.029 17.168C144.413 17.168 144.709 17.28 144.917 17.504C145.141 17.728 145.253 18.048 145.253 18.464V27.824C145.253 28.24 145.149 28.568 144.941 28.808C144.733 29.032 144.429 29.144 144.029 29.144ZM144.029 14.672C143.549 14.672 143.173 14.552 142.901 14.312C142.645 14.072 142.517 13.736 142.517 13.304C142.517 12.856 142.645 12.52 142.901 12.296C143.173 12.056 143.549 11.936 144.029 11.936C144.509 11.936 144.877 12.056 145.133 12.296C145.405 12.52 145.541 12.856 145.541 13.304C145.541 13.736 145.405 14.072 145.133 14.312C144.877 14.552 144.509 14.672 144.029 14.672ZM153.753 29.216C152.569 29.216 151.545 28.968 150.681 28.472C149.833 27.976 149.169 27.272 148.689 26.36C148.209 25.448 147.969 24.376 147.969 23.144C147.969 22.2 148.105 21.36 148.377 20.624C148.649 19.888 149.033 19.256 149.529 18.728C150.041 18.184 150.649 17.776 151.353 17.504C152.073 17.216 152.873 17.072 153.753 17.072C154.921 17.072 155.929 17.32 156.777 17.816C157.641 18.312 158.313 19.016 158.793 19.928C159.273 20.824 159.513 21.896 159.513 23.144C159.513 24.072 159.377 24.912 159.105 25.664C158.833 26.416 158.441 27.056 157.929 27.584C157.433 28.112 156.825 28.52 156.105 28.808C155.401 29.08 154.617 29.216 153.753 29.216ZM153.753 27.344C154.409 27.344 154.985 27.184 155.481 26.864C155.977 26.544 156.361 26.072 156.633 25.448C156.921 24.824 157.065 24.056 157.065 23.144C157.065 21.768 156.761 20.728 156.153 20.024C155.545 19.32 154.745 18.968 153.753 18.968C153.081 18.968 152.497 19.128 152.001 19.448C151.505 19.752 151.113 20.216 150.825 20.84C150.553 21.464 150.417 22.232 150.417 23.144C150.417 24.504 150.721 25.544 151.329 26.264C151.937 26.984 152.745 27.344 153.753 27.344Z" fill="#030229"/>
</svg>
